<?xml version="1.0" encoding="UTF-8"?>
<svg id="Layer_1" data-name="Layer 1" xmlns="http://www.w3.org/2000/svg" viewBox="0 0 2377.51 1070.41">
  <defs>
    <style>
      .cls-1 {
        fill: none;
        fill-rule: evenodd;
        stroke: #eeff01;
        stroke-miterlimit: 10;
        stroke-width: 21px;
      }
    </style>
  </defs>
  <path class="cls-1" d="M14.04,338.54v164.07h479.92c55.78,0,127.05-51.58,127.05-136.91,0-34.32,13.13-56.7-27.21-102.1l-61.39-72.73c-35.17-32.81,4.2-32.81,33.75-32.81h202.63v344.55h160.7V158.06h216.58V10.5H444.74c-85.33,0-127.05,81.93-124.7,124.59,2.36,42.66,10.21,96.33,81.11,160.8,64.68,58.79-32.02,42.66-41.74,42.66H14.04ZM1501.4,10.5h-259.24l-145.33,492.12h161.73l26.24-68.91h170.63l25.33,68.91h158.43L1501.4,10.5h0ZM1320.92,315.57l55.78-180.49,52.51,180.49h-108.3ZM2151.12,338.54c-62.35,0-62.35-22.97-62.35-22.97,53.42,0,100.79-77.83,100.79-157.52s-77.82-147.56-140.19-147.56h-348.77v492.12h177.22v-164.07s75.46,88.6,114.83,124.69c39.39,36.09,42.66,39.38,96.11,39.38h278.19v-164.07s-153.48-.01-215.83-.01h0ZM1990.33,223.7h-112.47v-88.61h112.47c51.57,0,60.49,88.61,0,88.61ZM14.04,564.96h181.3l45.94,164.09,42.66-164.09h190.33l49.22,164.09,49.23-164.09h157.5l-144.39,492.24h-144.38l-63.27-233-71.28,233h-147.66L14.04,564.96ZM1102.32,567.8h-259.24l-145.31,492.11h161.72l26.25-68.9h170.64l25.33,68.9h158.44l-137.83-492.11ZM921.85,872.86l55.78-180.49,52.5,180.49h-108.28ZM2154.39,712.64c-29.51,0-61.68,3.45-26.5,36.25l61.4,72.75c40.32,45.39,39.67,64.32,39.67,98.66,0,85.32-84.41,136.9-140.19,136.9l-387.74,2.61c-53.42,0-56.69-3.27-96.08-39.36-39.36-36.09-114.85-124.7-114.85-124.7v164.07h-177.19v-492.11h348.77c62.35,0,140.19,67.88,140.19,147.56s-47.37,157.52-100.81,157.52c0,0,23.5,23.63,62.88,23.63s191.01.16,191.01.16c9.7,0,106.39,16.13,41.72-42.66-70.91-64.47-78.75-118.12-81.11-160.77s34.53-128.15,119.81-128.15h331.64v147.69h-212.61s0-.01,0-.01ZM1602.59,780.88h-112.5v-88.61h112.5c51.58,0,60.49,88.61,0,88.61Z"/>
</svg>